# xmcd
#
# Track frame offsets: 
#        150
#        18092
#        24767
#        43615
#        65759
#        99189
#        145925
#        165860
#        207961
#        225663
#        247122
#        278302
#
# Disc length: 4051 seconds
#
# Revision: 1
# Processed by: cddbd v1.5.2PL0 Copyright (c) Steve Scherf et al.
# Submitted via: ExactAudioCopy v0.95b4
#
DISCID=8d0fd10c
DTITLE=Steve Hillage - Live At Deeply Vale Festival 1978 [disc 2]
DYEAR=1978
DGENRE=Progressive Rock
TTITLE0=Lunar Musick Suite
TTITLE1=Sun Song (Reprise)
TTITLE2=Activation Meditation
TTITLE3=Glorious OM Riff
TTITLE4=Saucer Surfing (audience)
TTITLE5=Searching For The Spark (audience)
TTITLE6=Octave Doctors (audience)
TTITLE7=Salmon Song (audience)
TTITLE8=The Ruts - Babylons Burning
TTITLE9=Tractor - The Jester
TTITLE10=Tractor - Arguement For One
TTITLE11=Tractor - Bring What You Expect To Find
EXTD=tracks 1-4 mixing desk\ntracks 5-8 audience cassette\ntracks 9-12
EXTD=other deeply vale happenings
EXTT0=
EXTT1=
EXTT2=
EXTT3=
EXTT4=
EXTT5=
EXTT6=
EXTT7=
EXTT8=
EXTT9=
EXTT10=
EXTT11=
PLAYORDER=
